<svg xmlns="http://www.w3.org/2000/svg" width="142.906" height="141.757" viewBox="0 0 37.81 37.507">
    <path d="M26.063 35.484c3.571-2.54 5.82-5 8.36-9.657 1.482-2.567 3.017-11.986 1.35-18.389 1.825 3.307 2.116 10.08.529 15.32-1.561 5.476-4.974 9.419-10.24 12.726m-4.021.582c-3.149-.212-5.398-1.535-7.858-3.175 6.64 2.223 12.223-.74 15.795-10.583 1.535-2.064 2.011-3.572 2.461-5.371-.714 5.98-4.075 16.96-10.398 19.13M9.976 30.88c.952.715 2.17 1.297 3.228 1.667 3.783 2.62 7.567 3.625 7.937 3.704-4.365.424-7.858-2.355-11.165-5.37M5.425 13.18c-5 8.149 1.455 17.33 8.255 21.537-5.186-1.43-8.996-6.139-10.742-10.08-1.693-4.181-1.35-7.568 2.487-11.457m23.627 10.345c-2.751 6.747-6.8 9.736-11.192 9.287-5.318-.397-7.646-1.932-10.45-6.244 0 0 0 .026.026.026-.9-1.455-1.323-3.519-1.402-5.133 3.386 8.202 16.14 10.769 23.018 2.064M14.05 9.158c3.493-3.07 7.568-5.292 11.351-5.16 6.694.318 6.826 10.822 4.154 18.204-7.144 9.737-19.156 6.958-21.934-.344-.794-3.466.926-7.805 6.43-12.7M30.508 20.8c1.322-4.34 1.693-9.023.608-12.938 2.487 3.968 1.932 8.916-.608 12.938m2.619-13.177c.159 1.059.238 2.435-.132 4.842-.37-4.471-3.36-8.678-6.218-9.392 2.963.026 5.106 1.058 6.35 4.55m-.344 10.584c.317-2.223.317-4.34.317-4.34.16-.925.477-2.645.477-4.418 2.698 7.938-.265 18.547-6.536 24.024 1.747-2.46 4.71-8.387 5.742-15.266m-3.704 14.314c2.275-3.228 5.133-8.679 5.82-14.526.106-1.058.556-11.086-3.65-15.452 4.206 1.403 5.53 8.811 4.841 14.923-.688 6.43-3.36 11.562-7.011 15.055m5.953-29.316c-.873-1.455-4.128-3.73-9.684-3.096-6.958 0-13.652 3.757-18.203 7.33-4.604 3.703-7.117 7.196-7.144 9.18-.053 2.487 1.323 7.7 4.048 11.774 2.672 3.863 5.054 5.212 8.679 7.065 3.571 1.905 8.281 2.99 11.853.952 4.498-.952 8.599-6.112 11.165-11.51 2.487-5.08 3.255-15.557-.714-21.695" fill="#ffe600"/>
</svg>