<svg xmlns="http://www.w3.org/2000/svg" width="757" height="473">
    <path d="M.000002 466.50627H173.35335c35.22119 0 71.97886 3.56254 105.77493-8.17224 74.88259-26.00087 112.27295-114.73079 80.44586-186.72787-6.31858-14.2935-14.66658-27.95287-25.61389-39.1759-24.7576-25.38104-55.72851-40.54117-91.06967-43.90662-17.6462-1.68041-36.13772-.16627-53.86687-.16627-20.22407 0-45.42603 4.03666-64.64024-2.99185-33.659345-12.31255-40.404358-55.2164-13.71157-78.00342 13.85897-11.831077 30.8809-11.068104 47.99049-11.068104h425.05854c49.64105 0 104.70602 8.413714 138.84321-36.23771 5.67581-7.42394 10.07654-15.708918 13.26193-24.484939 3.74972-10.330689 5.57062-21.344788 5.57786-32.3201195H192.9413c-25.83798 0-52.82273-2.2318297-78.35181 2.2036445C35.792174 19.145247-14.948592 99.690567 4.2848663 176.6046c3.5393959 14.15395 9.4589137 27.72641 17.0767267 40.1553 6.042795 9.85916 13.532787 18.33838 21.731902 26.43995 51.976119 51.35778 124.315395 35.33706 190.003105 38.23884 27.54742 1.2169 48.81317 27.75625 43.61571 54.80771-8.10569 42.1884-54.55676 37.21711-86.7092 37.21711-65.0938 0-156.331724-16.67508-184.4252332 60.72264C1.8280867 444.51684.00726913 455.53094.000002 466.50627M416.24394 281.40014H552.3802c24.44489 0 51.67253 3.36991 75.41362-3.3576 40.13718-11.37372 66.72841-48.49961 67.57843-89.68517H559.23599c-24.44488 0-51.67243-3.36991-75.41362 3.35762-40.16156 11.38063-66.72762 48.47298-67.57843 89.68515m-46.03168 185.10613h196.85891c33.38247 0 71.21043 4.91358 103.81614-2.82482 41.24008-9.78764 70.48871-48.08968 70.51662-90.21794h-199.7971c-32.87093 0-70.82592-5.2064-102.83674 2.8354-40.66821 10.21672-68.5306 48.94618-68.55783 90.20736z" fill="#ad0a0a"/>
</svg>